<svg width="50" height="50" viewBox="0 0 50 50" fill="none" xmlns="http://www.w3.org/2000/svg">
<path d="M12.6225 43.5677C15.1434 44.7135 18.3517 44.7135 20.8725 43.5677C23.3934 42.4219 26.6017 42.4219 29.1225 43.5677C31.6434 44.7135 34.8517 44.7135 37.3725 43.5677M24.9974 6.25V10.4167M8.33073 27.0833H4.16406M13.1518 15.2377L10.2055 12.2915M36.8423 15.2377L39.7886 12.2915M45.8307 27.0833H41.6641M14.5807 27.0833C14.5807 21.3304 19.2444 16.6667 24.9974 16.6667C30.7504 16.6667 35.4141 21.3304 35.4141 27.0833M4.3726 36.276C6.89343 35.1302 10.1018 35.1302 12.6226 36.276C15.1434 37.4219 18.3518 37.4219 20.8726 36.276C23.3934 35.1302 26.6018 35.1302 29.1226 36.276C31.6434 37.4219 34.8518 37.4219 37.3726 36.276C39.8934 35.1302 43.1018 35.1302 45.6226 36.276" stroke="white" stroke-width="2" stroke-linecap="round" stroke-linejoin="round"/>
</svg>
