<svg width="50" height="50" viewBox="0 0 50 50" fill="none" xmlns="http://www.w3.org/2000/svg">
<path d="M5.59479 32.5943L9.5702 30.2994C9.78553 30.1751 10.0382 30.1319 10.2826 30.1776L18.1045 31.6415C18.7473 31.7618 19.3407 31.267 19.3378 30.613L19.3073 23.7596C19.3065 23.5734 19.3556 23.3904 19.4495 23.2296L23.3969 16.4716C23.6023 16.1199 23.5839 15.6807 23.3497 15.3474L16.7035 5.88717M39.5812 10.1233C28.1228 15.6254 34.3725 22.9171 36.4562 23.9587C40.3667 25.9137 45.805 26.042 45.805 26.042C45.822 25.6969 45.8307 25.3496 45.8307 25.0003C45.8307 13.4944 36.5033 4.16699 24.9974 4.16699C13.4915 4.16699 4.16406 13.4944 4.16406 25.0003C4.16406 36.5063 13.4915 45.8337 24.9974 45.8337C25.3467 45.8337 25.694 45.8251 26.0391 45.8081M34.9095 45.7082L28.312 28.3149L45.7053 34.9124L37.9925 37.9954L34.9095 45.7082Z" stroke="white" stroke-width="2" stroke-linecap="round" stroke-linejoin="round"/>
</svg>
