<svg width="50" height="50" viewBox="0 0 50 50" fill="none" xmlns="http://www.w3.org/2000/svg">
<path d="M43.75 20.8337H6.25M33.3333 4.16699V12.5003M16.6667 4.16699V12.5003M21.875 29.167L25 27.0837V37.5003M22.3958 37.5003H27.6042M16.25 45.8337H33.75C37.2503 45.8337 39.0005 45.8337 40.3374 45.1525C41.5135 44.5532 42.4696 43.5971 43.0688 42.4211C43.75 41.0842 43.75 39.334 43.75 35.8337V18.3337C43.75 14.8333 43.75 13.0832 43.0688 11.7462C42.4696 10.5702 41.5135 9.61408 40.3374 9.01487C39.0005 8.33366 37.2503 8.33366 33.75 8.33366H16.25C12.7497 8.33366 10.9995 8.33366 9.66256 9.01487C8.48655 9.61408 7.53042 10.5702 6.93121 11.7462C6.25 13.0832 6.25 14.8333 6.25 18.3337V35.8337C6.25 39.334 6.25 41.0842 6.93121 42.4211C7.53042 43.5971 8.48655 44.5532 9.66256 45.1525C10.9995 45.8337 12.7497 45.8337 16.25 45.8337Z" stroke="white" stroke-width="2" stroke-linecap="round" stroke-linejoin="round"/>
</svg>
