<svg width="50" height="50" viewBox="0 0 50 50" fill="none" xmlns="http://www.w3.org/2000/svg">
<path d="M24.9974 4.16699C30.2084 9.87189 33.1698 17.2754 33.3307 25.0003C33.1698 32.7253 30.2084 40.1288 24.9974 45.8337M24.9974 4.16699C19.7864 9.87189 16.825 17.2754 16.6641 25.0003C16.825 32.7253 19.7864 40.1288 24.9974 45.8337M24.9974 4.16699C13.4915 4.16699 4.16406 13.4944 4.16406 25.0003C4.16406 36.5063 13.4915 45.8337 24.9974 45.8337M24.9974 4.16699C36.5033 4.16699 45.8307 13.4944 45.8307 25.0003C45.8307 36.5063 36.5033 45.8337 24.9974 45.8337M5.20577 18.7503H44.7891M5.20573 31.2503H44.7891" stroke="white" stroke-width="2" stroke-linecap="round" stroke-linejoin="round"/>
</svg>
